<svg width="140" height="100" viewBox="0 0 140 100" fill="none" xmlns="http://www.w3.org/2000/svg">
<path d="M69.9655 29.4375L137.565 29.5075C137.565 66.5675 107.025 97.0475 69.9655 97.0475C52.0601 96.9634 34.9121 89.8132 22.251 77.152C9.58982 64.4909 2.43962 47.3429 2.35547 29.4375H69.9655Z" stroke="#808080" stroke-width="4" stroke-miterlimit="10"/>
<path d="M71.5054 77.2108L71.0954 77.6308C69.8203 78.9034 68.1037 79.6355 66.3026 79.6746C64.5015 79.7137 62.7546 79.0569 61.4255 77.8408C61.2848 77.7186 61.1513 77.5883 61.0255 77.4508C59.7931 76.1241 59.1228 74.3713 59.1554 72.5608C59.1893 70.8675 59.8359 69.2438 60.9754 67.9908C61.0397 67.906 61.1099 67.8258 61.1855 67.7508L65.0454 63.8808L68.8154 60.0808C69.5678 59.3151 70.4891 58.7363 71.5054 58.3908C72.794 57.9535 74.1822 57.9013 75.5 58.2405C76.8178 58.5797 78.0082 59.2957 78.9255 60.3008C79.8538 61.3245 80.4584 62.6 80.6631 63.9667C80.8677 65.3334 80.6633 66.7301 80.0754 67.9808C79.7458 68.7261 79.2813 69.4042 78.7055 69.9808L74.9054 73.7908L71.5054 77.2108Z" fill="#808080"/>
<path d="M69.0459 0.170168L79.4058 4.08017C80.0475 4.32418 80.5727 4.80262 80.8753 5.41887C81.1778 6.03512 81.2352 6.74323 81.0359 7.40016C80.9144 7.80578 80.8894 8.23415 80.9627 8.65116C81.036 9.06816 81.2057 9.46229 81.4582 9.80217C81.7106 10.1421 82.039 10.4183 82.417 10.6089C82.7951 10.7995 83.2125 10.8993 83.6359 10.9002H101.296C101.683 10.8994 102.067 10.9818 102.42 11.1418C102.773 11.3017 103.087 11.5356 103.342 11.8275C103.597 12.1194 103.787 12.4626 103.898 12.834C104.009 13.2054 104.039 13.5962 103.986 13.9802L102.206 26.8302C102.115 27.477 101.794 28.0694 101.302 28.4991C100.809 28.9288 100.179 29.167 99.5259 29.1702H92.4459C92.0088 29.1715 91.5785 29.2784 91.1918 29.482C90.805 29.6856 90.4732 29.9797 90.2247 30.3392C89.9761 30.6987 89.8182 31.113 89.7645 31.5468C89.7107 31.9805 89.7626 32.4208 89.9159 32.8302L108.746 83.2702C108.871 83.6101 108.927 83.9715 108.911 84.3333C108.895 84.6952 108.808 85.0503 108.653 85.3779C108.499 85.7055 108.281 85.9991 108.011 86.2416C107.742 86.484 107.428 86.6705 107.086 86.7902L95.7659 91.8402C94.3759 92.3102 92.9559 90.4002 92.4459 89.0202L74.0459 39.8902C73.8497 39.3929 73.5108 38.9648 73.0719 38.6596C72.633 38.3545 72.1136 38.186 71.5792 38.1753C71.0447 38.1646 70.519 38.3122 70.0683 38.5996C69.6175 38.8869 69.2618 39.3012 69.0459 39.7902L48.4058 88.7902C47.8658 90.0702 46.4959 92.6802 45.1659 92.2802L33.6959 86.8502C33.332 86.74 32.9955 86.5545 32.7081 86.3057C32.4206 86.0569 32.1887 85.7505 32.0275 85.4062C31.8662 85.062 31.7791 84.6877 31.772 84.3076C31.7648 83.9276 31.8377 83.5502 31.9859 83.2002L53.1759 32.7202C53.3487 32.3089 53.4174 31.8613 53.3757 31.4171C53.334 30.9729 53.1833 30.5458 52.937 30.1739C52.6907 29.8019 52.3563 29.4965 51.9636 29.2848C51.5709 29.073 51.132 28.9615 50.6859 28.9602H40.2059C39.8338 28.9599 39.4657 28.8828 39.1248 28.7335C38.784 28.5843 38.4776 28.3662 38.225 28.0929C37.9724 27.8197 37.779 27.4972 37.657 27.1456C37.535 26.7941 37.4869 26.4212 37.5159 26.0502L38.4659 13.4502C38.5163 12.7684 38.8226 12.1308 39.3233 11.6653C39.824 11.1999 40.4822 10.9408 41.1659 10.9402H59.9159C60.4512 10.941 60.9747 10.7827 61.4198 10.4853C61.8649 10.188 62.2116 9.76501 62.4159 9.27017L65.5859 1.70017C65.8492 1.04433 66.3583 0.517326 67.0047 0.231509C67.6511 -0.0543089 68.3835 -0.0763212 69.0459 0.170168Z" fill="#808080"/>
</svg>
