<svg width="48" height="48" viewBox="0 0 48 48" fill="none" xmlns="http://www.w3.org/2000/svg">
<path d="M32.38 4H15.62C8.34 4 4 8.34 4 15.62V32.36C4 39.66 8.34 44 15.62 44H32.36C39.64 44 43.98 39.66 43.98 32.38V15.62C44 8.34 39.66 4 32.38 4ZM37.06 25.06L28.48 33.64C28.18 33.94 27.8 34.08 27.42 34.08C27.04 34.08 26.66 33.94 26.36 33.64C25.78 33.06 25.78 32.1 26.36 31.52L32.38 25.5H12C11.18 25.5 10.5 24.82 10.5 24C10.5 23.18 11.18 22.5 12 22.5H32.38L26.36 16.48C25.78 15.9 25.78 14.94 26.36 14.36C26.94 13.78 27.9 13.78 28.48 14.36L37.06 22.94C37.34 23.22 37.5 23.6 37.5 24C37.5 24.4 37.34 24.78 37.06 25.06Z" fill="#00AEEF"/>
</svg>
