<svg width="39" height="39" viewBox="0 0 39 39" fill="none" xmlns="http://www.w3.org/2000/svg">
<path d="M31.8505 7.5393C29.519 6.44839 27.0523 5.67325 24.5159 5.23438C24.2 5.80557 23.8308 6.57384 23.5763 7.18503C20.8415 6.77382 18.1319 6.77382 15.4474 7.18503C15.193 6.57397 14.8155 5.80557 14.4967 5.23438C11.9577 5.67345 9.48902 6.45057 7.15637 7.545C2.51457 14.5595 1.25621 21.3996 1.88532 28.1428C4.96407 30.4419 7.94769 31.8386 10.881 32.7526C11.61 31.75 12.2545 30.6886 12.8077 29.5794C11.7545 29.1784 10.7391 28.6843 9.77377 28.1028C10.0278 27.9145 10.2759 27.7183 10.5176 27.5144C16.3673 30.2506 22.7234 30.2506 28.5034 27.5144C28.7462 27.717 28.9942 27.9132 29.2471 28.1028C28.2802 28.6858 27.263 29.1809 26.2077 29.5823C26.764 30.6961 27.4073 31.7585 28.1343 32.7553C31.0704 31.8415 34.0568 30.4448 37.1356 28.1428C37.8738 20.3258 35.8746 13.5483 31.8505 7.53916V7.5393ZM13.6047 23.9959C11.8486 23.9959 10.4084 22.3564 10.4084 20.3601C10.4084 18.3637 11.8179 16.7215 13.6047 16.7215C15.3916 16.7215 16.8316 18.3608 16.8009 20.3601C16.8037 22.3564 15.3916 23.9959 13.6047 23.9959ZM25.4162 23.9959C23.6601 23.9959 22.2201 22.3564 22.2201 20.3601C22.2201 18.3637 23.6294 16.7215 25.4162 16.7215C27.2031 16.7215 28.6432 18.3608 28.6125 20.3601C28.6125 22.3564 27.2031 23.9959 25.4162 23.9959Z" fill="#5865F2"/>
</svg>
