<svg width="44" height="44" viewBox="0 0 44 44" fill="none" xmlns="http://www.w3.org/2000/svg">
<circle cx="22.0962" cy="21.9048" r="21.9048" fill="#231F20"/>
<path d="M20.7277 17.7967H15.2515C14.1622 17.7967 13.1175 18.2294 12.3473 18.9996C11.5771 19.7699 11.1443 20.8145 11.1443 21.9038C11.1443 22.9931 11.5771 24.0378 12.3473 24.808C13.1175 25.5783 14.1622 26.011 15.2515 26.011H20.7277V28.7491H15.2515C13.436 28.7491 11.6949 28.0279 10.4112 26.7441C9.12744 25.4604 8.40625 23.7193 8.40625 21.9038C8.40625 20.0884 9.12744 18.3472 10.4112 17.0635C11.6949 15.7798 13.436 15.0586 15.2515 15.0586H20.7277V17.7967ZM23.4658 26.011H28.942C30.0312 26.011 31.0759 25.5783 31.8461 24.808C32.6164 24.0378 33.0491 22.9931 33.0491 21.9038C33.0491 20.8145 32.6164 19.7699 31.8461 18.9996C31.0759 18.2294 30.0312 17.7967 28.942 17.7967H23.4658V15.0586H28.942C30.7574 15.0586 32.4985 15.7798 33.7823 17.0635C35.066 18.3472 35.7872 20.0884 35.7872 21.9038C35.7872 23.7193 35.066 25.4604 33.7823 26.7441C32.4985 28.0279 30.7574 28.7491 28.942 28.7491H23.4658V26.011ZM17.9896 20.5348H26.2039C26.567 20.5348 26.9152 20.679 27.1719 20.9358C27.4287 21.1925 27.5729 21.5407 27.5729 21.9038C27.5729 22.2669 27.4287 22.6151 27.1719 22.8719C26.9152 23.1286 26.567 23.2729 26.2039 23.2729H17.9896C17.6265 23.2729 17.2783 23.1286 17.0215 22.8719C16.7648 22.6151 16.6205 22.2669 16.6205 21.9038C16.6205 21.5407 16.7648 21.1925 17.0215 20.9358C17.2783 20.679 17.6265 20.5348 17.9896 20.5348Z" fill="white"/>
</svg>
