<svg width="39" height="39" viewBox="0 0 39 39" fill="none" xmlns="http://www.w3.org/2000/svg">
<rect x="0.480469" y="0.0507812" width="38" height="38" rx="18.9062" fill="url(#paint0_linear_993_2845)"/>
<path d="M19.481 8.41903C22.9428 8.41903 23.3532 8.43043 24.7212 8.49503C25.9866 8.55203 26.6744 8.76483 27.1304 8.94343C27.7346 9.17903 28.1678 9.46023 28.62 9.91243C29.0722 10.3646 29.3534 10.7978 29.589 11.402C29.7676 11.858 29.9766 12.5458 30.0374 13.8112C30.0982 15.1792 30.1134 15.5896 30.1134 19.0514C30.1134 22.5132 30.102 22.9236 30.0374 24.2916C29.9804 25.557 29.7676 26.2448 29.589 26.7008C29.3534 27.305 29.0722 27.7382 28.62 28.1904C28.1678 28.6426 27.7346 28.9238 27.1304 29.1594C26.6744 29.338 25.9866 29.547 24.7212 29.6078C23.3532 29.6686 22.9428 29.6838 19.481 29.6838C16.0192 29.6838 15.6088 29.6724 14.2408 29.6078C12.9754 29.5508 12.2876 29.338 11.8316 29.1594C11.2274 28.9238 10.7942 28.6426 10.342 28.1904C9.88981 27.7382 9.60861 27.305 9.37301 26.7008C9.19441 26.2448 8.98541 25.557 8.92461 24.2916C8.86381 22.9236 8.84861 22.5132 8.84861 19.0514C8.84861 15.5896 8.86001 15.1792 8.92461 13.8112C8.98161 12.5458 9.19441 11.858 9.37301 11.402C9.60861 10.7978 9.88981 10.3646 10.342 9.91243C10.7942 9.46023 11.2274 9.17903 11.8316 8.94343C12.2876 8.76483 12.9754 8.55583 14.2408 8.49503C15.6088 8.43043 16.0192 8.41903 19.481 8.41903ZM19.481 6.08203C15.9584 6.08203 15.5176 6.09723 14.1344 6.16183C12.755 6.22643 11.8126 6.44303 10.9842 6.76603C10.133 7.09283 9.40721 7.53743 8.68901 8.25943C7.96701 8.98143 7.52621 9.70343 7.19181 10.5584C6.87261 11.383 6.65221 12.3254 6.58761 13.7086C6.52301 15.0918 6.50781 15.5326 6.50781 19.0552C6.50781 22.5778 6.52301 23.0186 6.58761 24.4018C6.65221 25.7812 6.86881 26.7236 7.19181 27.552C7.52241 28.3994 7.96701 29.1252 8.68901 29.8434C9.41101 30.5654 10.133 31.0062 10.988 31.3406C11.8126 31.6598 12.755 31.8802 14.1382 31.9448C15.5214 32.0094 15.9622 32.0246 19.4848 32.0246C23.0074 32.0246 23.4482 32.0094 24.8314 31.9448C26.2108 31.8802 27.1532 31.6636 27.9816 31.3406C28.829 31.01 29.5548 30.5654 30.273 29.8434C30.995 29.1214 31.4358 28.3994 31.7702 27.5444C32.0894 26.7198 32.3098 25.7774 32.3744 24.3942C32.439 23.011 32.4542 22.5702 32.4542 19.0476C32.4542 15.525 32.439 15.0842 32.3744 13.701C32.3098 12.3216 32.0932 11.3792 31.7702 10.5508C31.4396 9.70343 30.995 8.97763 30.273 8.25943C29.551 7.53743 28.829 7.09663 27.974 6.76223C27.1494 6.44303 26.207 6.22263 24.8238 6.15803C23.4444 6.09723 23.0036 6.08203 19.481 6.08203Z" fill="white"/>
<path d="M19.4798 12.3906C15.8014 12.3906 12.8184 15.3736 12.8184 19.052C12.8184 22.7304 15.8014 25.7134 19.4798 25.7134C23.1582 25.7134 26.1412 22.7304 26.1412 19.052C26.1412 15.3736 23.1582 12.3906 19.4798 12.3906ZM19.4798 23.3764C17.0934 23.3764 15.1554 21.4422 15.1554 19.052C15.1554 16.6618 17.0934 14.7276 19.4798 14.7276C21.8662 14.7276 23.8042 16.6618 23.8042 19.052C23.8042 21.4422 21.8662 23.3764 19.4798 23.3764Z" fill="white"/>
<path d="M26.4037 13.6863C27.2642 13.6863 27.9617 12.9888 27.9617 12.1283C27.9617 11.2679 27.2642 10.5703 26.4037 10.5703C25.5432 10.5703 24.8457 11.2679 24.8457 12.1283C24.8457 12.9888 25.5432 13.6863 26.4037 13.6863Z" fill="white"/>
<defs>
<linearGradient id="paint0_linear_993_2845" x1="6.04544" y1="32.4858" x2="32.9155" y2="5.61575" gradientUnits="userSpaceOnUse">
<stop stop-color="#FFD521"/>
<stop offset="0.0551048" stop-color="#FFD020"/>
<stop offset="0.1241" stop-color="#FEC01E"/>
<stop offset="0.2004" stop-color="#FCA71B"/>
<stop offset="0.2821" stop-color="#FA8316"/>
<stop offset="0.3681" stop-color="#F85510"/>
<stop offset="0.4563" stop-color="#F51E09"/>
<stop offset="0.5" stop-color="#F30005"/>
<stop offset="0.5035" stop-color="#F20007"/>
<stop offset="0.5966" stop-color="#E1003B"/>
<stop offset="0.6879" stop-color="#D30067"/>
<stop offset="0.7757" stop-color="#C70088"/>
<stop offset="0.8589" stop-color="#BF00A0"/>
<stop offset="0.9357" stop-color="#BB00AF"/>
<stop offset="1" stop-color="#B900B4"/>
</linearGradient>
</defs>
</svg>
