<svg width="50" height="51" viewBox="0 0 50 51" fill="none" xmlns="http://www.w3.org/2000/svg">
<circle cx="25" cy="25.75" r="25" fill="#D9D9D9"/>
<g clip-path="url(#clip0_745_2259)">
<path d="M31.3756 14.0632C31.3754 12.8167 31.8135 11.6099 32.6133 10.6538C33.4131 9.69779 34.5235 9.0534 35.7504 8.83341C36.9773 8.61342 38.2425 8.83183 39.3246 9.45044C40.4067 10.069 41.2369 11.0484 41.6698 12.2173C42.1028 13.3862 42.1109 14.67 41.6929 15.8443C41.2748 17.0185 40.4572 18.0084 39.383 18.6407C38.3088 19.273 37.0465 19.5075 35.8169 19.3031C34.5873 19.0987 33.4688 18.4685 32.6569 17.5227L18.3812 24.1527C18.7094 25.1927 18.7094 26.3086 18.3812 27.3487L32.6569 33.9787C33.5151 32.9806 34.7132 32.3367 36.0191 32.1717C37.325 32.0067 38.6456 32.3323 39.7251 33.0855C40.8045 33.8387 41.5659 34.9658 41.8617 36.2484C42.1575 37.531 41.9666 38.8778 41.3261 40.0276C40.6855 41.1775 39.6409 42.0486 38.3946 42.4722C37.1484 42.8958 35.7892 42.8416 34.5807 42.3202C33.3721 41.7988 32.4001 40.8472 31.8531 39.65C31.3061 38.4528 31.223 37.0952 31.6199 35.8402L17.3442 29.2102C16.6375 30.0338 15.6955 30.6212 14.645 30.8934C13.5944 31.1655 12.4857 31.1095 11.468 30.7327C10.4503 30.3559 9.57237 29.6765 8.95237 28.7858C8.33236 27.8951 8 26.8359 8 25.7507C8 24.6654 8.33236 23.6062 8.95237 22.7156C9.57237 21.8249 10.4503 21.1454 11.468 20.7687C12.4857 20.3919 13.5944 20.3358 14.645 20.608C15.6955 20.8802 16.6375 21.4676 17.3442 22.2912L31.6199 15.6612C31.4574 15.1441 31.375 14.6052 31.3756 14.0632Z" fill="black"/>
</g>
<defs>
<clipPath id="clip0_745_2259">
<rect width="34" height="34" fill="white" transform="translate(8 8.75)"/>
</clipPath>
</defs>
</svg>
