<svg width="39" height="39" viewBox="0 0 39 39" fill="none" xmlns="http://www.w3.org/2000/svg">
<g clip-path="url(#clip0_993_2848)">
<path d="M8.91111 23.9964C8.91111 26.198 7.13179 27.9775 4.93016 27.9775C2.72854 27.9775 0.949219 26.198 0.949219 23.9964C0.949219 21.7949 2.72854 20.0156 4.93031 20.0156H8.91096V23.9966L8.91111 23.9964ZM10.9017 23.9964C10.9017 21.7949 12.681 20.0156 14.8826 20.0156C17.0842 20.0156 18.8635 21.7949 18.8635 23.9966V33.9489C18.8635 36.1505 17.0842 37.93 14.8825 37.93C12.6811 37.93 10.9017 36.1505 10.9017 33.9489V23.9966V23.9964Z" fill="#E01E5A"/>
<path d="M14.8834 8.01267C12.6818 8.01267 10.9023 6.23335 10.9023 4.03173C10.9023 1.8301 12.682 0.0507812 14.8834 0.0507812C17.0849 0.0507812 18.8644 1.8301 18.8644 4.03173V8.01282H14.8833L14.8834 8.01267ZM14.8834 10.0334C17.0851 10.0334 18.8644 11.8127 18.8644 14.0143C18.8644 16.2159 17.0851 17.9952 14.8833 17.9952H4.90102C2.69924 17.9952 0.919922 16.2159 0.919922 14.0141C0.919922 11.8128 2.69924 10.0334 4.90087 10.0334H14.8833H14.8834Z" fill="#36C5F0"/>
<path d="M30.8372 14.0143C30.8372 11.8127 32.6165 10.0332 34.818 10.0332C37.0196 10.0332 38.7991 11.8127 38.7991 14.0143C38.7991 16.2159 37.0196 17.9952 34.818 17.9952H30.8372V14.0141V14.0143ZM28.8467 14.0143C28.8467 16.2159 27.0672 17.9952 24.8656 17.9952C22.6641 17.9952 20.8848 16.2159 20.8848 14.0141V4.03187C20.8848 1.8301 22.6641 0.0507812 24.8656 0.0507812C27.067 0.0507812 28.8465 1.8301 28.8465 4.03173V14.0141L28.8467 14.0143Z" fill="#2EB67D"/>
<path d="M24.8656 29.9681C27.0672 29.9681 28.8467 31.7474 28.8467 33.9489C28.8467 36.1505 27.0672 37.93 24.8656 37.93C22.6641 37.93 20.8848 36.1505 20.8848 33.9489V29.9681H24.8657H24.8656ZM24.8656 27.9775C22.6641 27.9775 20.8848 26.198 20.8848 23.9964C20.8848 21.7949 22.6641 20.0156 24.8657 20.0156H34.8481C37.0498 20.0156 38.8292 21.7949 38.8292 23.9966C38.8292 26.198 37.0498 27.9775 34.8481 27.9775H24.8657H24.8656Z" fill="#ECB22E"/>
</g>
<defs>
<clipPath id="clip0_993_2848">
<rect width="38" height="38" fill="white" transform="translate(0.919922 0.0507812)"/>
</clipPath>
</defs>
</svg>
