<svg width="38" height="39" viewBox="0 0 38 39" fill="none" xmlns="http://www.w3.org/2000/svg">
<rect y="0.0507812" width="38" height="38" rx="18.9062" fill="#24ACFF"/>
<path d="M14.5922 28.7025C23.5526 28.7025 28.4584 21.2773 28.4584 14.8363C28.4584 14.6273 28.4584 14.4145 28.4432 14.2055C29.397 13.5139 30.2216 12.6627 30.8752 11.6823C29.986 12.0775 29.0436 12.3359 28.0784 12.4499C29.0968 11.8419 29.8568 10.8843 30.2216 9.7557C29.264 10.3219 28.219 10.7247 27.1284 10.9375C25.2816 8.9767 22.196 8.8817 20.2352 10.7247C18.9698 11.9141 18.434 13.6887 18.8254 15.3797C14.9076 15.1821 11.2558 13.3315 8.78201 10.2877C7.49001 12.5145 8.14741 15.3607 10.2906 16.7933C9.51541 16.7705 8.75541 16.5615 8.07901 16.1853C8.07901 16.2043 8.07901 16.2271 8.07901 16.2461C8.07901 18.5641 9.71301 20.5629 11.9892 21.0227C11.271 21.2165 10.5186 21.2469 9.78901 21.1063C10.4274 23.0899 12.2552 24.4503 14.3414 24.4921C12.6162 25.8487 10.4844 26.5859 8.29181 26.5821C7.90421 26.5821 7.51661 26.5593 7.13281 26.5099C9.35201 27.9425 11.9474 28.7025 14.5922 28.6987" fill="white"/>
</svg>
