<svg width="44" height="44" viewBox="0 0 44 44" fill="none" xmlns="http://www.w3.org/2000/svg">
<circle cx="22.0317" cy="21.9048" r="21.9048" fill="#231F20"/>
<path d="M28.0013 24.6395C28.1108 23.7359 28.193 22.8324 28.193 21.9014C28.193 20.9705 28.1108 20.0669 28.0013 19.1633H32.6287C32.8477 20.0395 32.9847 20.9568 32.9847 21.9014C32.9847 22.8461 32.8477 23.7633 32.6287 24.6395M25.5781 32.2514C26.3995 30.7318 27.0293 29.0889 27.4674 27.3776H31.5061C30.1797 29.6616 28.0754 31.3916 25.5781 32.2514ZM25.2358 24.6395H18.8287C18.6918 23.7359 18.6097 22.8324 18.6097 21.9014C18.6097 20.9705 18.6918 20.0532 18.8287 19.1633H25.2358C25.3591 20.0532 25.4549 20.9705 25.4549 21.9014C25.4549 22.8324 25.3591 23.7359 25.2358 24.6395ZM22.0323 32.799C20.896 31.1562 19.9787 29.3353 19.4174 27.3776H24.6472C24.0858 29.3353 23.1686 31.1562 22.0323 32.799ZM16.5561 16.4252H12.5585C13.8712 14.1351 15.974 12.4023 18.4727 11.5514C17.6513 13.0711 17.0352 14.7139 16.5561 16.4252ZM12.5585 27.3776H16.5561C17.0352 29.0889 17.6513 30.7318 18.4727 32.2514C15.9792 31.3912 13.8794 29.6608 12.5585 27.3776ZM11.4358 24.6395C11.2168 23.7633 11.0799 22.8461 11.0799 21.9014C11.0799 20.9568 11.2168 20.0395 11.4358 19.1633H16.0632C15.9537 20.0669 15.8716 20.9705 15.8716 21.9014C15.8716 22.8324 15.9537 23.7359 16.0632 24.6395M22.0323 10.9901C23.1686 12.633 24.0858 14.4675 24.6472 16.4252H19.4174C19.9787 14.4675 20.896 12.633 22.0323 10.9901ZM31.5061 16.4252H27.4674C27.0389 14.7296 26.4044 13.0928 25.5781 11.5514C28.0972 12.4139 30.1918 14.1526 31.5061 16.4252ZM22.0323 8.21094C14.4614 8.21094 8.3418 14.3717 8.3418 21.9014C8.3418 25.5324 9.78418 29.0146 12.3516 31.582C13.6229 32.8533 15.1321 33.8618 16.7932 34.5498C18.4542 35.2378 20.2344 35.5919 22.0323 35.5919C25.6632 35.5919 29.1454 34.1495 31.7129 31.582C34.2804 29.0146 35.7227 25.5324 35.7227 21.9014C35.7227 20.1036 35.3686 18.3233 34.6806 16.6623C33.9926 15.0013 32.9842 13.4921 31.7129 12.2208C30.4416 10.9495 28.9324 9.94107 27.2714 9.25306C25.6104 8.56505 23.8301 8.21094 22.0323 8.21094Z" fill="white"/>
</svg>
