<svg width="39" height="39" viewBox="0 0 39 39" fill="none" xmlns="http://www.w3.org/2000/svg">
<rect x="0.960938" y="0.0507812" width="38" height="38" rx="18.9062" fill="#25D366"/>
<path fill-rule="evenodd" clip-rule="evenodd" d="M29.7389 9.31164C27.3829 6.95184 24.2441 5.65224 20.9039 5.64844C14.0221 5.64844 8.41705 11.2496 8.41705 18.1352C8.41705 20.3354 8.99085 22.4862 10.0853 24.3786L8.31445 30.85L14.9341 29.1134C16.7581 30.109 18.8101 30.6334 20.9001 30.6334H20.9039C27.7857 30.6334 33.3869 25.0322 33.3907 18.1466C33.3945 14.8102 32.0987 11.6714 29.7389 9.31164ZM20.9077 28.5244H20.9039C19.0419 28.5244 17.2141 28.0228 15.6219 27.0766L15.2419 26.8524L11.3127 27.8822L12.3615 24.0518L12.1145 23.6604C11.0771 22.0074 10.5261 20.0998 10.5261 18.1352C10.5299 12.4124 15.1849 7.75744 20.9115 7.75744C23.6855 7.75744 26.2885 8.84044 28.2493 10.8012C30.2101 12.762 31.2893 15.3726 31.2855 18.1428C31.2855 23.8694 26.6267 28.5244 20.9077 28.5244ZM26.6001 20.7496C26.2885 20.5938 24.7533 19.8376 24.4683 19.735C24.1833 19.6324 23.9743 19.5792 23.7653 19.8908C23.5563 20.2024 22.9597 20.9054 22.7773 21.1144C22.5949 21.3234 22.4125 21.35 22.1009 21.1942C21.7893 21.0384 20.7823 20.7078 19.5929 19.6438C18.6657 18.8154 18.0387 17.7932 17.8563 17.4816C17.6739 17.17 17.8373 16.999 17.9931 16.8432C18.1337 16.7026 18.3047 16.4784 18.4605 16.296C18.6163 16.1136 18.6695 15.9844 18.7721 15.7754C18.8747 15.5664 18.8253 15.384 18.7455 15.2282C18.6657 15.0724 18.0425 13.5372 17.7841 12.9102C17.5295 12.3022 17.2749 12.3858 17.0811 12.3744C16.8987 12.3668 16.6897 12.363 16.4845 12.363C16.2755 12.363 15.9373 12.4428 15.6523 12.7544C15.3673 13.066 14.5617 13.8222 14.5617 15.3574C14.5617 16.8926 15.6789 18.3784 15.8347 18.5836C15.9905 18.7926 18.0349 21.9428 21.1661 23.2956C21.9109 23.6186 22.4923 23.8086 22.9445 23.953C23.6931 24.1924 24.3733 24.1582 24.9091 24.0784C25.5095 23.9872 26.7559 23.3222 27.0143 22.5964C27.2727 21.8668 27.2727 21.2436 27.1967 21.1144C27.1207 20.9852 26.9117 20.9092 26.6001 20.7496Z" fill="white"/>
</svg>
